<?xml version="1.0" encoding="us-ascii" standalone="no"?><svg xmlns="http://www.w3.org/2000/svg" xmlns:xlink="http://www.w3.org/1999/xlink" contentStyleType="text/css" height="108px" preserveAspectRatio="none" style="width:473px;height:108px;background:#FFFFFF;" version="1.1" viewBox="0 0 473 108" width="473px" zoomAndPan="magnify"><defs/><g><!--cluster UserOperations--><g id="cluster_UserOperations"><path d="M206.8959,18.6492 C210.0234,12.2721 214.1258,11.3624 219.509,16.0861 C223.7192,10.0032 229.711,9.751 233.2843,16.7565 C236.3085,10.1097 242.7781,8.301 247.5173,14.9158 C249.8707,9.4318 254.9515,9.0473 258.5456,13.545 C262.431,6 267.1714,6.0752 272.8985,11.5081 C277.6553,6.7088 281.8684,7.2478 284.5819,13.641 C289.0347,7.8884 293.7914,7.2797 298.2863,13.5933 C303.8784,7.541 308.3663,7.9639 312.0989,15.4856 C316.3637,11.3871 321.4131,12.0098 323.8455,17.6873 C328.8513,10.877 333.3438,10.4671 338.6832,17.3252 C345.4992,20.9707 345.1851,26.6262 338.8786,30.4669 C345.0196,32.9433 346.4856,37.0928 341.5531,42.1124 C348.6711,44.8193 348.414,50.3021 343.3515,54.7433 C348.3164,59.4159 346.5316,63.1725 340.8757,65.3709 C346.1733,70.4687 345.9461,75.3689 338.7334,78.4115 C343.6167,82.2715 343.0087,86.1945 337.2987,88.5565 C334.9176,95.5011 328.4461,96.8991 323.9418,90.7169 C319.8508,96.386 315.0336,97.3843 310.5734,91.131 C308.7433,97.1308 303.9502,99.4476 299.091,94.2323 C295.5233,100.8718 289.95,99.4686 286.2818,94.3418 C283.3628,100.2199 277.8624,101.1149 273.2701,96.3965 C268.3395,101.8589 264.1791,101.8125 259.9522,95.5941 C255.55,101.0469 248.8543,100.0913 246.512,93.3278 C242.6097,98.662 238.0138,99.545 234.4335,93.0003 C229.2492,99.6822 223.2065,97.5336 220.2456,90.6711 C215.2784,95.7468 211.3599,95.5539 208.0344,88.954 C202.5621,86.6569 201.9459,81.8457 206.8602,78.3936 C199.2781,76.1107 197.8973,70.9455 203.7563,65.4415 C197.9789,62.5139 197.9991,58.1064 203.1613,54.5796 C196.5342,50.803 198.0995,44.8142 203.8127,41.6599 C198.0633,36.7099 200.4026,32.1161 206.1778,29.387 C201.5262,25.6889 201.6624,21.6862 206.8959,18.6492 " fill="none" style="stroke:#181818;stroke-width:1.0;"/><text fill="#000000" font-family="sans-serif" font-size="14" font-weight="bold" lengthAdjust="spacing" textLength="126" x="208.5" y="35.0968">UserOperations</text></g><!--entity 4337 Bundler--><g id="elem_4337 Bundler"><rect fill="#F1F1F1" height="36.2969" rx="2.5" ry="2.5" style="stroke:#181818;stroke-width:0.5;" width="114" x="214.5" y="44.1017"/><text fill="#000000" font-family="sans-serif" font-size="14" lengthAdjust="spacing" textLength="94" x="224.5" y="67.0968">4337 Bundler</text></g><!--entity User--><g id="elem_User"><ellipse cx="21.5" cy="62.1017" fill="#F1F1F1" rx="8" ry="8" style="stroke:#181818;stroke-width:0.5;"/><text fill="#000000" font-family="sans-serif" font-size="14" lengthAdjust="spacing" textLength="31" x="6" y="92.0968">User</text></g><!--entity Smart Wallet--><g id="elem_Smart Wallet"><rect fill="#F1F1F1" height="36.2969" rx="2.5" ry="2.5" style="stroke:#181818;stroke-width:0.5;" width="114" x="65.5" y="44.1017"/><text fill="#000000" font-family="sans-serif" font-size="14" lengthAdjust="spacing" textLength="94" x="75.5" y="67.0968">Smart Wallet</text></g><!--entity Application--><g id="elem_Application"><rect fill="#F1F1F1" height="36.2969" rx="2.5" ry="2.5" style="stroke:#181818;stroke-width:0.5;" width="103" x="364" y="44.1017"/><text fill="#000000" font-family="sans-serif" font-size="14" lengthAdjust="spacing" textLength="83" x="374" y="67.0968">Application</text></g><!--link User to Smart Wallet--><g id="link_User_Smart Wallet"><path d="M30.5742,62.1017 C40.4612,62.1017 50.3482,62.1017 60.2352,62.1017 " fill="none" id="User-to-Smart Wallet" style="stroke:#181818;stroke-width:1.0;"/><polygon fill="#181818" points="65.4055,62.1017,56.4055,58.1017,60.4055,62.1017,56.4055,66.1017,65.4055,62.1017" style="stroke:#181818;stroke-width:1.0;"/></g><!--link Smart Wallet to 4337 Bundler--><g id="link_Smart Wallet_4337 Bundler"><path d="M179.539,62.1017 C189.43,62.1017 199.321,62.1017 209.211,62.1017 " fill="none" id="Smart Wallet-to-4337 Bundler" style="stroke:#181818;stroke-width:1.0;stroke-dasharray:7.0,7.0;"/><polygon fill="#181818" points="214.384,62.1017,205.384,58.1017,209.384,62.1017,205.384,66.1017,214.384,62.1017" style="stroke:#181818;stroke-width:1.0;"/></g><!--link 4337 Bundler to Application--><g id="link_4337 Bundler_Application"><path d="M328.594,62.1017 C338.615,62.1017 348.637,62.1017 358.659,62.1017 " fill="none" id="4337 Bundler-to-Application" style="stroke:#181818;stroke-width:1.0;stroke-dasharray:7.0,7.0;"/><polygon fill="#181818" points="363.899,62.1017,354.899,58.1017,358.899,62.1017,354.899,66.1017,363.899,62.1017" style="stroke:#181818;stroke-width:1.0;"/></g><!--SRC=[AyxEp2j8B4hCLKZEpot8pqlDAmakgSn9LIXAJIv9p4lFIUKABKujKj2rKuWEpaqiAb48Jyp9IIs9vKhEoIzDKG19-XUa5YMMPERd5LTpAG11j8cniRc2KsbUIavgKInNBHUgJWKzEtGbg5om0iU2WfpCPB2niG00]--></g></svg><?xml version="1.0" encoding="us-ascii" standalone="no"?><svg xmlns="http://www.w3.org/2000/svg" xmlns:xlink="http://www.w3.org/1999/xlink" contentStyleType="text/css" height="108px" preserveAspectRatio="none" style="width:473px;height:108px;background:#FFFFFF;" version="1.1" viewBox="0 0 473 108" width="473px" zoomAndPan="magnify"><defs/><g><!--cluster UserOperations--><g id="cluster_UserOperations"><path d="M206.8959,18.6492 C210.0234,12.2721 214.1258,11.3624 219.509,16.0861 C223.7192,10.0032 229.711,9.751 233.2843,16.7565 C236.3085,10.1097 242.7781,8.301 247.5173,14.9158 C249.8707,9.4318 254.9515,9.0473 258.5456,13.545 C262.431,6 267.1714,6.0752 272.8985,11.5081 C277.6553,6.7088 281.8684,7.2478 284.5819,13.641 C289.0347,7.8884 293.7914,7.2797 298.2863,13.5933 C303.8784,7.541 308.3663,7.9639 312.0989,15.4856 C316.3637,11.3871 321.4131,12.0098 323.8455,17.6873 C328.8513,10.877 333.3438,10.4671 338.6832,17.3252 C345.4992,20.9707 345.1851,26.6262 338.8786,30.4669 C345.0196,32.9433 346.4856,37.0928 341.5531,42.1124 C348.6711,44.8193 348.414,50.3021 343.3515,54.7433 C348.3164,59.4159 346.5316,63.1725 340.8757,65.3709 C346.1733,70.4687 345.9461,75.3689 338.7334,78.4115 C343.6167,82.2715 343.0087,86.1945 337.2987,88.5565 C334.9176,95.5011 328.4461,96.8991 323.9418,90.7169 C319.8508,96.386 315.0336,97.3843 310.5734,91.131 C308.7433,97.1308 303.9502,99.4476 299.091,94.2323 C295.5233,100.8718 289.95,99.4686 286.2818,94.3418 C283.3628,100.2199 277.8624,101.1149 273.2701,96.3965 C268.3395,101.8589 264.1791,101.8125 259.9522,95.5941 C255.55,101.0469 248.8543,100.0913 246.512,93.3278 C242.6097,98.662 238.0138,99.545 234.4335,93.0003 C229.2492,99.6822 223.2065,97.5336 220.2456,90.6711 C215.2784,95.7468 211.3599,95.5539 208.0344,88.954 C202.5621,86.6569 201.9459,81.8457 206.8602,78.3936 C199.2781,76.1107 197.8973,70.9455 203.7563,65.4415 C197.9789,62.5139 197.9991,58.1064 203.1613,54.5796 C196.5342,50.803 198.0995,44.8142 203.8127,41.6599 C198.0633,36.7099 200.4026,32.1161 206.1778,29.387 C201.5262,25.6889 201.6624,21.6862 206.8959,18.6492 " fill="none" style="stroke:#181818;stroke-width:1.0;"/><text fill="#000000" font-family="sans-serif" font-size="14" font-weight="bold" lengthAdjust="spacing" textLength="126" x="208.5" y="35.0968">UserOperations</text></g><!--entity 4337 Bundler--><g id="elem_4337 Bundler"><rect fill="#F1F1F1" height="36.2969" rx="2.5" ry="2.5" style="stroke:#181818;stroke-width:0.5;" width="114" x="214.5" y="44.1017"/><text fill="#000000" font-family="sans-serif" font-size="14" lengthAdjust="spacing" textLength="94" x="224.5" y="67.0968">4337 Bundler</text></g><!--entity User--><g id="elem_User"><ellipse cx="21.5" cy="62.1017" fill="#F1F1F1" rx="8" ry="8" style="stroke:#181818;stroke-width:0.5;"/><text fill="#000000" font-family="sans-serif" font-size="14" lengthAdjust="spacing" textLength="31" x="6" y="92.0968">User</text></g><!--entity Smart Wallet--><g id="elem_Smart Wallet"><rect fill="#F1F1F1" height="36.2969" rx="2.5" ry="2.5" style="stroke:#181818;stroke-width:0.5;" width="114" x="65.5" y="44.1017"/><text fill="#000000" font-family="sans-serif" font-size="14" lengthAdjust="spacing" textLength="94" x="75.5" y="67.0968">Smart Wallet</text></g><!--entity Application--><g id="elem_Application"><rect fill="#F1F1F1" height="36.2969" rx="2.5" ry="2.5" style="stroke:#181818;stroke-width:0.5;" width="103" x="364" y="44.1017"/><text fill="#000000" font-family="sans-serif" font-size="14" lengthAdjust="spacing" textLength="83" x="374" y="67.0968">Application</text></g><!--link User to Smart Wallet--><g id="link_User_Smart Wallet"><path d="M30.5742,62.1017 C40.4612,62.1017 50.3482,62.1017 60.2352,62.1017 " fill="none" id="User-to-Smart Wallet" style="stroke:#181818;stroke-width:1.0;"/><polygon fill="#181818" points="65.4055,62.1017,56.4055,58.1017,60.4055,62.1017,56.4055,66.1017,65.4055,62.1017" style="stroke:#181818;stroke-width:1.0;"/></g><!--link Smart Wallet to 4337 Bundler--><g id="link_Smart Wallet_4337 Bundler"><path d="M179.539,62.1017 C189.43,62.1017 199.321,62.1017 209.211,62.1017 " fill="none" id="Smart Wallet-to-4337 Bundler" style="stroke:#181818;stroke-width:1.0;stroke-dasharray:7.0,7.0;"/><polygon fill="#181818" points="214.384,62.1017,205.384,58.1017,209.384,62.1017,205.384,66.1017,214.384,62.1017" style="stroke:#181818;stroke-width:1.0;"/></g><!--link 4337 Bundler to Application--><g id="link_4337 Bundler_Application"><path d="M328.594,62.1017 C338.615,62.1017 348.637,62.1017 358.659,62.1017 " fill="none" id="4337 Bundler-to-Application" style="stroke:#181818;stroke-width:1.0;stroke-dasharray:7.0,7.0;"/><polygon fill="#181818" points="363.899,62.1017,354.899,58.1017,358.899,62.1017,354.899,66.1017,363.899,62.1017" style="stroke:#181818;stroke-width:1.0;"/></g><!--SRC=[AyxEp2j8B4hCLKZEpot8pqlDAmakgSn9LIXAJIv9p4lFIUKABKujKj2rKuWEpaqiAb48Jyp9IIs9vKhEoIzDKG19-XUa5YMMPERd5LTpAG11j8cniRc2KsbUIavgKInNBHUgJWKzEtGbg5om0iU2WfpCPB2niG00]--></g></svg>
