<?xml version="1.0" encoding="us-ascii" standalone="no"?><svg xmlns="http://www.w3.org/2000/svg" xmlns:xlink="http://www.w3.org/1999/xlink" contentStyleType="text/css" height="277px" preserveAspectRatio="none" style="width:641px;height:277px;background:#FFFFFF;" version="1.1" viewBox="0 0 641 277" width="641px" zoomAndPan="magnify"><defs/><g><!--cluster Smart Wallet--><g id="cluster_Smart Wallet"><path d="M8.5,73 L116.5,73 A3.75,3.75 0 0 1 119,75.5 L126,95.2969 L468.5,95.2969 A2.5,2.5 0 0 1 471,97.7969 L471,267.5 A2.5,2.5 0 0 1 468.5,270 L8.5,270 A2.5,2.5 0 0 1 6,267.5 L6,75.5 A2.5,2.5 0 0 1 8.5,73 " fill="none" style="stroke:#000000;stroke-width:1.5;"/><line style="stroke:#000000;stroke-width:1.5;" x1="6" x2="126" y1="95.2969" y2="95.2969"/><text fill="#000000" font-family="sans-serif" font-size="14" font-weight="bold" lengthAdjust="spacing" textLength="107" x="10" y="87.9951">Smart Wallet</text></g><!--entity Tracker--><g id="elem_Tracker"><rect fill="#F1F1F1" height="36.2969" rx="2.5" ry="2.5" style="stroke:#181818;stroke-width:0.5;" width="75" x="123.5" y="108"/><text fill="#000000" font-family="sans-serif" font-size="14" lengthAdjust="spacing" textLength="55" x="133.5" y="130.9951">Tracker</text></g><!--entity Diamond Wallet--><g id="elem_Diamond Wallet"><rect fill="#F1F1F1" height="36.2969" rx="2.5" ry="2.5" style="stroke:#181818;stroke-width:0.5;" width="134" x="243" y="108"/><text fill="#000000" font-family="sans-serif" font-size="14" lengthAdjust="spacing" textLength="114" x="253" y="130.9951">Diamond Wallet</text></g><!--entity Wallet Facets--><g id="elem_Wallet Facets"><rect fill="#F1F1F1" height="36.2969" rx="2.5" ry="2.5" style="stroke:#181818;stroke-width:0.5;" width="117" x="337.5" y="213.5"/><text fill="#000000" font-family="sans-serif" font-size="14" lengthAdjust="spacing" textLength="97" x="347.5" y="236.4951">Wallet Facets</text></g><!--entity User Storage--><g id="elem_User Storage"><path d="M22,219 C22,209 78,209 78,209 C78,209 134,209 134,219 L134,244.2969 C134,254.2969 78,254.2969 78,254.2969 C78,254.2969 22,254.2969 22,244.2969 L22,219 " fill="#F1F1F1" style="stroke:#181818;stroke-width:0.5;"/><path d="M22,219 C22,229 78,229 78,229 C78,229 134,229 134,219 " fill="none" style="stroke:#181818;stroke-width:0.5;"/><text fill="#000000" font-family="sans-serif" font-size="14" lengthAdjust="spacing" textLength="92" x="32" y="245.9951">User Storage</text></g><!--entity Vendor Storage--><g id="elem_Vendor Storage"><path d="M169.5,219 C169.5,209 236,209 236,209 C236,209 302.5,209 302.5,219 L302.5,244.2969 C302.5,254.2969 236,254.2969 236,254.2969 C236,254.2969 169.5,254.2969 169.5,244.2969 L169.5,219 " fill="#F1F1F1" style="stroke:#181818;stroke-width:0.5;"/><path d="M169.5,219 C169.5,229 236,229 236,229 C236,229 302.5,229 302.5,219 " fill="none" style="stroke:#181818;stroke-width:0.5;"/><text fill="#000000" font-family="sans-serif" font-size="14" lengthAdjust="spacing" textLength="113" x="179.5" y="245.9951">Vendor Storage</text></g><!--entity UserOperations--><g id="elem_UserOperations"><path d="M497.4237,111.1923 C500.7648,106.0921 505.1778,105.5892 508.4685,111.244 C512.3272,104.3852 517.1892,103.5365 521.8479,110.4678 C524.9816,104.7921 531.3422,103.9884 535.1686,109.6542 C539.5786,104.293 544.0413,104.1303 547.5767,110.5735 C549.823,105.1881 554.3954,102.4342 559.1172,107.9536 C563.5053,102.0268 568.825,103.4604 572.2254,109.0754 C576.7901,104.3096 581.6978,105.1864 584.2565,111.2947 C587.4755,104.5674 591.3058,104.732 595.7881,110.0892 C600.8547,103.3999 605.5666,105.7451 609.1413,111.6687 C613.0047,105.5009 616.9013,105.7005 621.2416,111.173 C631.9011,113.4381 634.4338,119.3658 627.5322,128.1413 C633.1413,136.366 629.1944,141.1273 620.5511,142.3489 C617.7478,149.3222 613.4204,149.4647 608.7043,144.2007 C605.9368,149.2914 600.4202,150.6684 597.0427,144.8529 C593.3549,152.2756 588.78,152.6151 583.5062,146.4307 C580.4117,152.2294 575.5678,152.4438 571.4285,147.6183 C568.7516,153.7245 564.133,153.6316 559.7623,149.5598 C554.8678,155.8754 549.8398,155.1428 546.0812,148.3723 C540.539,154.4691 536.3123,152.5815 533.3182,145.8393 C529.34,152.5606 524.3364,152.3968 520.778,145.454 C515.8507,150.9366 512.0273,150.4063 508.095,144.3595 C504.0698,149.3038 499.535,147.8138 497.4981,142.3376 C488.1491,141.5091 485.1076,136.7034 489.8421,128.2313 C484.3181,120.0104 486.5401,112.1126 497.4237,111.1923 " fill="#F1F1F1" style="stroke:#181818;stroke-width:0.5;"/><text fill="#000000" font-family="sans-serif" font-size="14" lengthAdjust="spacing" textLength="111" x="502.5" y="130.9951">UserOperations</text></g><!--entity User--><g id="elem_User"><ellipse cx="161" cy="14" fill="#F1F1F1" rx="8" ry="8" style="stroke:#181818;stroke-width:0.5;"/><text fill="#000000" font-family="sans-serif" font-size="14" lengthAdjust="spacing" textLength="31" x="145.5" y="43.9951">User</text></g><!--entity Vendor--><g id="elem_Vendor"><ellipse cx="310" cy="14" fill="#F1F1F1" rx="8" ry="8" style="stroke:#181818;stroke-width:0.5;"/><text fill="#000000" font-family="sans-serif" font-size="14" lengthAdjust="spacing" textLength="52" x="284" y="43.9951">Vendor</text></g><!--link Tracker to Diamond Wallet--><g id="link_Tracker_Diamond Wallet"><path d="M198.541,126 C211.609,126 224.678,126 237.746,126 " fill="none" id="Tracker-to-Diamond Wallet" style="stroke:#181818;stroke-width:1.0;"/><polygon fill="#181818" points="242.95,126,233.95,122,237.95,126,233.95,130,242.95,126" style="stroke:#181818;stroke-width:1.0;"/></g><!--link Diamond Wallet to Wallet Facets--><g id="link_Diamond Wallet_Wallet Facets"><path d="M324.201,144.091 C339.015,161.919 362.269,189.9052 378.277,209.1704 " fill="none" id="Diamond Wallet-to-Wallet Facets" style="stroke:#181818;stroke-width:1.0;stroke-dasharray:7.0,7.0;"/><polygon fill="#181818" points="381.778,213.3837,379.1028,203.9051,378.5826,209.538,372.9497,209.0178,381.778,213.3837" style="stroke:#181818;stroke-width:1.0;"/></g><!--link Tracker to User Storage--><g id="link_Tracker_User Storage"><path d="M147.294,144.091 C134.11,160.532 113.999,185.61 98.833,204.5217 " fill="none" id="Tracker-to-User Storage" style="stroke:#181818;stroke-width:1.0;"/><polygon fill="#181818" points="95.482,208.7005,104.2335,204.1826,98.6104,204.8001,97.9929,199.1771,95.482,208.7005" style="stroke:#181818;stroke-width:1.0;"/></g><!--link Diamond Wallet to Vendor Storage--><g id="link_Diamond Wallet_Vendor Storage"><path d="M297.78,144.091 C286.026,160.532 268.095,185.61 254.574,204.5217 " fill="none" id="Diamond Wallet-to-Vendor Storage" style="stroke:#181818;stroke-width:1.0;"/><polygon fill="#181818" points="251.586,208.7005,260.0744,203.7059,254.4941,204.6332,253.5668,199.0529,251.586,208.7005" style="stroke:#181818;stroke-width:1.0;"/></g><!--link User to Tracker--><g id="link_User_Tracker"><path d="M161,23.268 C161,39.967 161,78.216 161,102.763 " fill="none" id="User-to-Tracker" style="stroke:#181818;stroke-width:1.0;"/><polygon fill="#181818" points="161,107.78,165,98.78,161,102.78,157,98.78,161,107.78" style="stroke:#181818;stroke-width:1.0;"/></g><!--link Vendor to Diamond Wallet--><g id="link_Vendor_Diamond Wallet"><path d="M310,23.268 C310,39.967 310,78.216 310,102.763 " fill="none" id="Vendor-to-Diamond Wallet" style="stroke:#181818;stroke-width:1.0;"/><polygon fill="#181818" points="310,107.78,314,98.78,310,102.78,306,98.78,310,107.78" style="stroke:#181818;stroke-width:1.0;"/></g><!--link Diamond Wallet to UserOperations--><g id="link_Diamond Wallet_UserOperations"><path d="M377.328,126 C412.307,126 447.286,126 482.264,126 " fill="none" id="Diamond Wallet-to-UserOperations" style="stroke:#181818;stroke-width:1.0;"/><polygon fill="#181818" points="487.425,126,478.425,122,482.425,126,478.425,130,487.425,126" style="stroke:#181818;stroke-width:1.0;"/></g><!--SRC=[TOwx3i8m34LtVuNLlVq49iJAK1u3oc1IgwgQ9bLY1bJrtqbV0WhD5llut1lgohRagK7jcjPPjfBBqp1wraAsD0mjwPfAnYHlo0jUoHYM13l0-0eIkbE8stDWZxau7zbbsyCAkh0jt1PsE_aOnLvXkiFRlgB6sMBEKnEn6cAMHNBwu84qIr1hrU3wxBPX6hdlUWgW1stSey11S6pParJEXYxEONIELqiMpEVfl_hmcpWNUtlL2m00]--></g></svg><?xml version="1.0" encoding="us-ascii" standalone="no"?><svg xmlns="http://www.w3.org/2000/svg" xmlns:xlink="http://www.w3.org/1999/xlink" contentStyleType="text/css" height="277px" preserveAspectRatio="none" style="width:641px;height:277px;background:#FFFFFF;" version="1.1" viewBox="0 0 641 277" width="641px" zoomAndPan="magnify"><defs/><g><!--cluster Smart Wallet--><g id="cluster_Smart Wallet"><path d="M8.5,73 L116.5,73 A3.75,3.75 0 0 1 119,75.5 L126,95.2969 L468.5,95.2969 A2.5,2.5 0 0 1 471,97.7969 L471,267.5 A2.5,2.5 0 0 1 468.5,270 L8.5,270 A2.5,2.5 0 0 1 6,267.5 L6,75.5 A2.5,2.5 0 0 1 8.5,73 " fill="none" style="stroke:#000000;stroke-width:1.5;"/><line style="stroke:#000000;stroke-width:1.5;" x1="6" x2="126" y1="95.2969" y2="95.2969"/><text fill="#000000" font-family="sans-serif" font-size="14" font-weight="bold" lengthAdjust="spacing" textLength="107" x="10" y="87.9951">Smart Wallet</text></g><!--entity Tracker--><g id="elem_Tracker"><rect fill="#F1F1F1" height="36.2969" rx="2.5" ry="2.5" style="stroke:#181818;stroke-width:0.5;" width="75" x="123.5" y="108"/><text fill="#000000" font-family="sans-serif" font-size="14" lengthAdjust="spacing" textLength="55" x="133.5" y="130.9951">Tracker</text></g><!--entity Diamond Wallet--><g id="elem_Diamond Wallet"><rect fill="#F1F1F1" height="36.2969" rx="2.5" ry="2.5" style="stroke:#181818;stroke-width:0.5;" width="134" x="243" y="108"/><text fill="#000000" font-family="sans-serif" font-size="14" lengthAdjust="spacing" textLength="114" x="253" y="130.9951">Diamond Wallet</text></g><!--entity Wallet Facets--><g id="elem_Wallet Facets"><rect fill="#F1F1F1" height="36.2969" rx="2.5" ry="2.5" style="stroke:#181818;stroke-width:0.5;" width="117" x="337.5" y="213.5"/><text fill="#000000" font-family="sans-serif" font-size="14" lengthAdjust="spacing" textLength="97" x="347.5" y="236.4951">Wallet Facets</text></g><!--entity User Storage--><g id="elem_User Storage"><path d="M22,219 C22,209 78,209 78,209 C78,209 134,209 134,219 L134,244.2969 C134,254.2969 78,254.2969 78,254.2969 C78,254.2969 22,254.2969 22,244.2969 L22,219 " fill="#F1F1F1" style="stroke:#181818;stroke-width:0.5;"/><path d="M22,219 C22,229 78,229 78,229 C78,229 134,229 134,219 " fill="none" style="stroke:#181818;stroke-width:0.5;"/><text fill="#000000" font-family="sans-serif" font-size="14" lengthAdjust="spacing" textLength="92" x="32" y="245.9951">User Storage</text></g><!--entity Vendor Storage--><g id="elem_Vendor Storage"><path d="M169.5,219 C169.5,209 236,209 236,209 C236,209 302.5,209 302.5,219 L302.5,244.2969 C302.5,254.2969 236,254.2969 236,254.2969 C236,254.2969 169.5,254.2969 169.5,244.2969 L169.5,219 " fill="#F1F1F1" style="stroke:#181818;stroke-width:0.5;"/><path d="M169.5,219 C169.5,229 236,229 236,229 C236,229 302.5,229 302.5,219 " fill="none" style="stroke:#181818;stroke-width:0.5;"/><text fill="#000000" font-family="sans-serif" font-size="14" lengthAdjust="spacing" textLength="113" x="179.5" y="245.9951">Vendor Storage</text></g><!--entity UserOperations--><g id="elem_UserOperations"><path d="M497.4237,111.1923 C500.7648,106.0921 505.1778,105.5892 508.4685,111.244 C512.3272,104.3852 517.1892,103.5365 521.8479,110.4678 C524.9816,104.7921 531.3422,103.9884 535.1686,109.6542 C539.5786,104.293 544.0413,104.1303 547.5767,110.5735 C549.823,105.1881 554.3954,102.4342 559.1172,107.9536 C563.5053,102.0268 568.825,103.4604 572.2254,109.0754 C576.7901,104.3096 581.6978,105.1864 584.2565,111.2947 C587.4755,104.5674 591.3058,104.732 595.7881,110.0892 C600.8547,103.3999 605.5666,105.7451 609.1413,111.6687 C613.0047,105.5009 616.9013,105.7005 621.2416,111.173 C631.9011,113.4381 634.4338,119.3658 627.5322,128.1413 C633.1413,136.366 629.1944,141.1273 620.5511,142.3489 C617.7478,149.3222 613.4204,149.4647 608.7043,144.2007 C605.9368,149.2914 600.4202,150.6684 597.0427,144.8529 C593.3549,152.2756 588.78,152.6151 583.5062,146.4307 C580.4117,152.2294 575.5678,152.4438 571.4285,147.6183 C568.7516,153.7245 564.133,153.6316 559.7623,149.5598 C554.8678,155.8754 549.8398,155.1428 546.0812,148.3723 C540.539,154.4691 536.3123,152.5815 533.3182,145.8393 C529.34,152.5606 524.3364,152.3968 520.778,145.454 C515.8507,150.9366 512.0273,150.4063 508.095,144.3595 C504.0698,149.3038 499.535,147.8138 497.4981,142.3376 C488.1491,141.5091 485.1076,136.7034 489.8421,128.2313 C484.3181,120.0104 486.5401,112.1126 497.4237,111.1923 " fill="#F1F1F1" style="stroke:#181818;stroke-width:0.5;"/><text fill="#000000" font-family="sans-serif" font-size="14" lengthAdjust="spacing" textLength="111" x="502.5" y="130.9951">UserOperations</text></g><!--entity User--><g id="elem_User"><ellipse cx="161" cy="14" fill="#F1F1F1" rx="8" ry="8" style="stroke:#181818;stroke-width:0.5;"/><text fill="#000000" font-family="sans-serif" font-size="14" lengthAdjust="spacing" textLength="31" x="145.5" y="43.9951">User</text></g><!--entity Vendor--><g id="elem_Vendor"><ellipse cx="310" cy="14" fill="#F1F1F1" rx="8" ry="8" style="stroke:#181818;stroke-width:0.5;"/><text fill="#000000" font-family="sans-serif" font-size="14" lengthAdjust="spacing" textLength="52" x="284" y="43.9951">Vendor</text></g><!--link Tracker to Diamond Wallet--><g id="link_Tracker_Diamond Wallet"><path d="M198.541,126 C211.609,126 224.678,126 237.746,126 " fill="none" id="Tracker-to-Diamond Wallet" style="stroke:#181818;stroke-width:1.0;"/><polygon fill="#181818" points="242.95,126,233.95,122,237.95,126,233.95,130,242.95,126" style="stroke:#181818;stroke-width:1.0;"/></g><!--link Diamond Wallet to Wallet Facets--><g id="link_Diamond Wallet_Wallet Facets"><path d="M324.201,144.091 C339.015,161.919 362.269,189.9052 378.277,209.1704 " fill="none" id="Diamond Wallet-to-Wallet Facets" style="stroke:#181818;stroke-width:1.0;stroke-dasharray:7.0,7.0;"/><polygon fill="#181818" points="381.778,213.3837,379.1028,203.9051,378.5826,209.538,372.9497,209.0178,381.778,213.3837" style="stroke:#181818;stroke-width:1.0;"/></g><!--link Tracker to User Storage--><g id="link_Tracker_User Storage"><path d="M147.294,144.091 C134.11,160.532 113.999,185.61 98.833,204.5217 " fill="none" id="Tracker-to-User Storage" style="stroke:#181818;stroke-width:1.0;"/><polygon fill="#181818" points="95.482,208.7005,104.2335,204.1826,98.6104,204.8001,97.9929,199.1771,95.482,208.7005" style="stroke:#181818;stroke-width:1.0;"/></g><!--link Diamond Wallet to Vendor Storage--><g id="link_Diamond Wallet_Vendor Storage"><path d="M297.78,144.091 C286.026,160.532 268.095,185.61 254.574,204.5217 " fill="none" id="Diamond Wallet-to-Vendor Storage" style="stroke:#181818;stroke-width:1.0;"/><polygon fill="#181818" points="251.586,208.7005,260.0744,203.7059,254.4941,204.6332,253.5668,199.0529,251.586,208.7005" style="stroke:#181818;stroke-width:1.0;"/></g><!--link User to Tracker--><g id="link_User_Tracker"><path d="M161,23.268 C161,39.967 161,78.216 161,102.763 " fill="none" id="User-to-Tracker" style="stroke:#181818;stroke-width:1.0;"/><polygon fill="#181818" points="161,107.78,165,98.78,161,102.78,157,98.78,161,107.78" style="stroke:#181818;stroke-width:1.0;"/></g><!--link Vendor to Diamond Wallet--><g id="link_Vendor_Diamond Wallet"><path d="M310,23.268 C310,39.967 310,78.216 310,102.763 " fill="none" id="Vendor-to-Diamond Wallet" style="stroke:#181818;stroke-width:1.0;"/><polygon fill="#181818" points="310,107.78,314,98.78,310,102.78,306,98.78,310,107.78" style="stroke:#181818;stroke-width:1.0;"/></g><!--link Diamond Wallet to UserOperations--><g id="link_Diamond Wallet_UserOperations"><path d="M377.328,126 C412.307,126 447.286,126 482.264,126 " fill="none" id="Diamond Wallet-to-UserOperations" style="stroke:#181818;stroke-width:1.0;"/><polygon fill="#181818" points="487.425,126,478.425,122,482.425,126,478.425,130,487.425,126" style="stroke:#181818;stroke-width:1.0;"/></g><!--SRC=[TOwx3i8m34LtVuNLlVq49iJAK1u3oc1IgwgQ9bLY1bJrtqbV0WhD5llut1lgohRagK7jcjPPjfBBqp1wraAsD0mjwPfAnYHlo0jUoHYM13l0-0eIkbE8stDWZxau7zbbsyCAkh0jt1PsE_aOnLvXkiFRlgB6sMBEKnEn6cAMHNBwu84qIr1hrU3wxBPX6hdlUWgW1stSey11S6pParJEXYxEONIELqiMpEVfl_hmcpWNUtlL2m00]--></g></svg>
