<?xml version="1.0" encoding="us-ascii" standalone="no"?><svg xmlns="http://www.w3.org/2000/svg" xmlns:xlink="http://www.w3.org/1999/xlink" contentStyleType="text/css" height="277px" preserveAspectRatio="none" style="width:778px;height:277px;background:#FFFFFF;" version="1.1" viewBox="0 0 778 277" width="778px" zoomAndPan="magnify"><defs/><g><!--cluster Smart Wallet--><g id="cluster_Smart Wallet"><path d="M8.5,73 L116.5,73 A3.75,3.75 0 0 1 119,75.5 L126,95.2969 L605.5,95.2969 A2.5,2.5 0 0 1 608,97.7969 L608,267.5 A2.5,2.5 0 0 1 605.5,270 L8.5,270 A2.5,2.5 0 0 1 6,267.5 L6,75.5 A2.5,2.5 0 0 1 8.5,73 " fill="none" style="stroke:#000000;stroke-width:1.5;"/><line style="stroke:#000000;stroke-width:1.5;" x1="6" x2="126" y1="95.2969" y2="95.2969"/><text fill="#000000" font-family="sans-serif" font-size="14" font-weight="bold" lengthAdjust="spacing" textLength="107" x="10" y="87.9951">Smart Wallet</text></g><!--entity Tracker Diamond--><g id="elem_Tracker Diamond"><rect fill="#F1F1F1" height="36.2969" rx="2.5" ry="2.5" style="stroke:#181818;stroke-width:0.5;" width="143" x="143.5" y="108"/><text fill="#000000" font-family="sans-serif" font-size="14" lengthAdjust="spacing" textLength="123" x="153.5" y="130.9951">Tracker Diamond</text></g><!--entity Diamond Wallet--><g id="elem_Diamond Wallet"><rect fill="#F1F1F1" height="36.2969" rx="2.5" ry="2.5" style="stroke:#181818;stroke-width:0.5;" width="134" x="388" y="108"/><text fill="#000000" font-family="sans-serif" font-size="14" lengthAdjust="spacing" textLength="114" x="398" y="130.9951">Diamond Wallet</text></g><!--entity User Facets--><g id="elem_User Facets"><rect fill="#F1F1F1" height="36.2969" rx="2.5" ry="2.5" style="stroke:#181818;stroke-width:0.5;" width="102" x="22" y="213.5"/><text fill="#000000" font-family="sans-serif" font-size="14" lengthAdjust="spacing" textLength="82" x="32" y="236.4951">User Facets</text></g><!--entity Wallet Facets--><g id="elem_Wallet Facets"><rect fill="#F1F1F1" height="36.2969" rx="2.5" ry="2.5" style="stroke:#181818;stroke-width:0.5;" width="117" x="306.5" y="213.5"/><text fill="#000000" font-family="sans-serif" font-size="14" lengthAdjust="spacing" textLength="97" x="316.5" y="236.4951">Wallet Facets</text></g><!--entity User Storage--><g id="elem_User Storage"><path d="M159,219 C159,209 215,209 215,209 C215,209 271,209 271,219 L271,244.2969 C271,254.2969 215,254.2969 215,254.2969 C215,254.2969 159,254.2969 159,244.2969 L159,219 " fill="#F1F1F1" style="stroke:#181818;stroke-width:0.5;"/><path d="M159,219 C159,229 215,229 215,229 C215,229 271,229 271,219 " fill="none" style="stroke:#181818;stroke-width:0.5;"/><text fill="#000000" font-family="sans-serif" font-size="14" lengthAdjust="spacing" textLength="92" x="169" y="245.9951">User Storage</text></g><!--entity Vendor Storage--><g id="elem_Vendor Storage"><path d="M458.5,219 C458.5,209 525,209 525,209 C525,209 591.5,209 591.5,219 L591.5,244.2969 C591.5,254.2969 525,254.2969 525,254.2969 C525,254.2969 458.5,254.2969 458.5,244.2969 L458.5,219 " fill="#F1F1F1" style="stroke:#181818;stroke-width:0.5;"/><path d="M458.5,219 C458.5,229 525,229 525,229 C525,229 591.5,229 591.5,219 " fill="none" style="stroke:#181818;stroke-width:0.5;"/><text fill="#000000" font-family="sans-serif" font-size="14" lengthAdjust="spacing" textLength="113" x="468.5" y="245.9951">Vendor Storage</text></g><!--entity UserOperations--><g id="elem_UserOperations"><path d="M634.4237,111.1923 C637.7648,106.0921 642.1778,105.5892 645.4685,111.244 C649.3272,104.3852 654.1892,103.5365 658.8479,110.4678 C661.9816,104.7921 668.3422,103.9884 672.1686,109.6542 C676.5786,104.293 681.0413,104.1303 684.5767,110.5735 C686.823,105.1881 691.3954,102.4342 696.1172,107.9536 C700.5053,102.0268 705.825,103.4604 709.2254,109.0754 C713.7901,104.3096 718.6978,105.1864 721.2565,111.2947 C724.4755,104.5674 728.3058,104.732 732.7881,110.0892 C737.8547,103.3999 742.5666,105.7451 746.1413,111.6687 C750.0047,105.5009 753.9013,105.7005 758.2416,111.173 C768.9011,113.4381 771.4338,119.3658 764.5322,128.1413 C770.1413,136.366 766.1944,141.1273 757.5511,142.3489 C754.7478,149.3222 750.4204,149.4647 745.7043,144.2007 C742.9368,149.2914 737.4202,150.6684 734.0427,144.8529 C730.3549,152.2756 725.78,152.6151 720.5062,146.4307 C717.4117,152.2294 712.5678,152.4438 708.4285,147.6183 C705.7516,153.7245 701.133,153.6316 696.7623,149.5598 C691.8678,155.8754 686.8398,155.1428 683.0812,148.3723 C677.539,154.4691 673.3123,152.5815 670.3182,145.8393 C666.34,152.5606 661.3364,152.3968 657.778,145.454 C652.8507,150.9366 649.0273,150.4063 645.095,144.3595 C641.0698,149.3038 636.535,147.8138 634.4981,142.3376 C625.1491,141.5091 622.1076,136.7034 626.8421,128.2313 C621.3181,120.0104 623.5401,112.1126 634.4237,111.1923 " fill="#F1F1F1" style="stroke:#181818;stroke-width:0.5;"/><text fill="#000000" font-family="sans-serif" font-size="14" lengthAdjust="spacing" textLength="111" x="639.5" y="130.9951">UserOperations</text></g><!--entity User--><g id="elem_User"><ellipse cx="215" cy="14" fill="#F1F1F1" rx="8" ry="8" style="stroke:#181818;stroke-width:0.5;"/><text fill="#000000" font-family="sans-serif" font-size="14" lengthAdjust="spacing" textLength="31" x="199.5" y="43.9951">User</text></g><!--entity Vendor--><g id="elem_Vendor"><ellipse cx="455" cy="14" fill="#F1F1F1" rx="8" ry="8" style="stroke:#181818;stroke-width:0.5;"/><text fill="#000000" font-family="sans-serif" font-size="14" lengthAdjust="spacing" textLength="52" x="429" y="43.9951">Vendor</text></g><!--link Tracker Diamond to Diamond Wallet--><g id="link_Tracker Diamond_Diamond Wallet"><path d="M286.719,126 C318.749,126 350.779,126 382.81,126 " fill="none" id="Tracker Diamond-to-Diamond Wallet" style="stroke:#181818;stroke-width:1.0;"/><polygon fill="#181818" points="387.95,126,378.95,122,382.95,126,378.95,130,387.95,126" style="stroke:#181818;stroke-width:1.0;"/></g><!--link Tracker Diamond to User Facets--><g id="link_Tracker Diamond_User Facets"><path d="M191.552,144.091 C166.577,162.294 127.076,191.0856 100.614,210.3729 " fill="none" id="Tracker Diamond-to-User Facets" style="stroke:#181818;stroke-width:1.0;stroke-dasharray:7.0,7.0;"/><polygon fill="#181818" points="96.483,213.3837,106.112,211.3142,100.5233,210.4383,101.3993,204.8496,96.483,213.3837" style="stroke:#181818;stroke-width:1.0;"/></g><!--link Diamond Wallet to Wallet Facets--><g id="link_Diamond Wallet_Wallet Facets"><path d="M440.138,144.091 C424.635,161.919 400.3,189.9052 383.547,209.1704 " fill="none" id="Diamond Wallet-to-Wallet Facets" style="stroke:#181818;stroke-width:1.0;stroke-dasharray:7.0,7.0;"/><polygon fill="#181818" points="379.884,213.3837,388.8082,209.2173,383.165,209.6108,382.7715,203.9676,379.884,213.3837" style="stroke:#181818;stroke-width:1.0;"/></g><!--link Tracker Diamond to User Storage--><g id="link_Tracker Diamond_User Storage"><path d="M215,144.091 C215,160.255 215,184.769 215,203.563 " fill="none" id="Tracker Diamond-to-User Storage" style="stroke:#181818;stroke-width:1.0;"/><polygon fill="#181818" points="215,208.7005,219,199.7005,215,203.7005,211,199.7005,215,208.7005" style="stroke:#181818;stroke-width:1.0;"/></g><!--link Diamond Wallet to Vendor Storage--><g id="link_Diamond Wallet_Vendor Storage"><path d="M466.559,144.091 C477.678,160.532 494.639,185.61 507.43,204.5217 " fill="none" id="Diamond Wallet-to-Vendor Storage" style="stroke:#181818;stroke-width:1.0;"/><polygon fill="#181818" points="510.256,208.7005,508.5268,199.0046,507.4546,204.559,501.9003,203.4868,510.256,208.7005" style="stroke:#181818;stroke-width:1.0;"/></g><!--link User to Tracker Diamond--><g id="link_User_Tracker Diamond"><path d="M215,23.268 C215,39.967 215,78.216 215,102.763 " fill="none" id="User-to-Tracker Diamond" style="stroke:#181818;stroke-width:1.0;"/><polygon fill="#181818" points="215,107.78,219,98.78,215,102.78,211,98.78,215,107.78" style="stroke:#181818;stroke-width:1.0;"/></g><!--link Vendor to Diamond Wallet--><g id="link_Vendor_Diamond Wallet"><path d="M455,23.268 C455,39.967 455,78.216 455,102.763 " fill="none" id="Vendor-to-Diamond Wallet" style="stroke:#181818;stroke-width:1.0;"/><polygon fill="#181818" points="455,107.78,459,98.78,455,102.78,451,98.78,455,107.78" style="stroke:#181818;stroke-width:1.0;"/></g><!--link Diamond Wallet to UserOperations--><g id="link_Diamond Wallet_UserOperations"><path d="M522.031,126 C554.419,126 586.807,126 619.196,126 " fill="none" id="Diamond Wallet-to-UserOperations" style="stroke:#181818;stroke-width:1.0;"/><polygon fill="#181818" points="624.394,126,615.394,122,619.394,126,615.394,130,624.394,126" style="stroke:#181818;stroke-width:1.0;"/></g><!--SRC=[TOyz3eCm34Ptdy9YXoDqghfse3z3nU062o52WX9tg11tRmf15L2oENv-d-sRsdJag4LbsyuQDfBBMpCwLaAcqWmTgOOgnYHloGdUIMkM17l0y4eIUf8FtQjdXxbO5zYvEy0Akh4fxHxskBWG5Ip7cbfhoWBJ0pvY4NEB7JBB0ZgkS2B5uYEt6fwmgLY2s-Xq5iPbTumZjpoh01X0QVigyIiuT-n8Qcjy7_vXT8vJwqo8clJVsR1DZWl-_CK7]--></g></svg>
